RBDS015runT25_grf
version=1
nRows=18
nColumns=19
inDegrees=no
endheader
time	ground_force_r_vx	ground_force_r_vy	ground_force_r_vz	ground_force_r_px	ground_force_r_py	ground_force_r_pz	ground_force_r_mx	ground_force_r_my	ground_force_r_mz	ground_force_l_vx	ground_force_l_vy	ground_force_l_vz	ground_force_l_px	ground_force_l_py	ground_force_l_pz	ground_force_l_mx	ground_force_l_my	ground_force_l_mz
      0.00000000	      0.00000000	      0.00000000	      0.00000000	      0.00000000	      0.00000000	      0.00000000	      0.00000000	      0.00000000	      0.00000000	    -63.50423818	   1678.64304776	     23.54904120	      2.11723460	      0.00000000	      0.99230030	     -0.00000000	      4.78680719	      0.00000000
      0.00100000	      0.00000000	      0.00000000	      0.00000000	      0.00000000	      0.00000000	      0.00000000	      0.00000000	      0.00000000	      0.00000000	    -61.09922999	   1678.84575960	     23.93235948	      2.11583672	      0.00000000	      0.99224633	     -0.00000000	      4.82117851	      0.00000000
      0.00200000	      0.00000000	      0.00000000	      0.00000000	      0.00000000	      0.00000000	      0.00000000	      0.00000000	      0.00000000	      0.00000000	    -58.69422181	   1679.04847143	     24.31567776	      2.11443884	      0.00000000	      0.99219237	     -0.00000000	      4.85554983	      0.00000000
      0.00300000	      0.00000000	      0.00000000	      0.00000000	      0.00000000	      0.00000000	      0.00000000	      0.00000000	      0.00000000	      0.00000000	    -56.28921362	   1679.25118327	     24.69899604	      2.11304096	      0.00000000	      0.99213840	     -0.00000000	      4.88992115	      0.00000000
      0.00400000	      0.00000000	      0.00000000	      0.00000000	      0.00000000	      0.00000000	      0.00000000	      0.00000000	      0.00000000	      0.00000000	    -53.88525830	   1679.42525508	     25.07408693	      2.11164299	      0.00000000	      0.99208424	     -0.00000000	      4.92527726	      0.00000000
      0.00500000	      0.00000000	      0.00000000	      0.00000000	      0.00000000	      0.00000000	      0.00000000	      0.00000000	      0.00000000	      0.00000000	    -51.48182940	   1679.58500687	     25.44506414	      2.11024497	      0.00000000	      0.99203000	     -0.00000000	      4.96112577	      0.00000000
      0.00600000	      0.00000000	      0.00000000	      0.00000000	      0.00000000	      0.00000000	      0.00000000	      0.00000000	      0.00000000	      0.00000000	    -49.07840051	   1679.74475865	     25.81604135	      2.10884695	      0.00000000	      0.99197575	     -0.00000000	      4.99697429	      0.00000000
      0.00700000	      0.00000000	      0.00000000	      0.00000000	      0.00000000	      0.00000000	      0.00000000	      0.00000000	      0.00000000	      0.00000000	    -46.67540499	   1679.85901412	     26.18050634	      2.10744651	      0.00000000	      0.99192159	     -0.00000000	      5.03347209	      0.00000000
      0.00800000	      0.00000000	      0.00000000	      0.00000000	      0.00000000	      0.00000000	      0.00000000	      0.00000000	      0.00000000	      0.00000000	    -44.27327620	   1679.88227693	     26.53194690	      2.10604123	      0.00000000	      0.99186762	     -0.00000000	      5.07126846	      0.00000000
      0.00900000	      0.00000000	      0.00000000	      0.00000000	      0.00000000	      0.00000000	      0.00000000	      0.00000000	      0.00000000	      0.00000000	    -41.87114742	   1679.90553975	     26.88338747	      2.10463595	      0.00000000	      0.99181364	     -0.00000000	      5.10906482	      0.00000000
      0.01000000	      0.00000000	      0.00000000	      0.00000000	      0.00000000	      0.00000000	      0.00000000	      0.00000000	      0.00000000	      0.00000000	    -39.46901863	   1679.92880257	     27.23482804	      2.10323067	      0.00000000	      0.99175967	     -0.00000000	      5.14686119	      0.00000000
      0.01100000	      0.00000000	      0.00000000	      0.00000000	      0.00000000	      0.00000000	      0.00000000	      0.00000000	      0.00000000	      0.00000000	    -37.06465944	   1679.72170370	     27.55885065	      2.10181041	      0.00000000	      0.99170661	     -0.00000000	      5.18704122	      0.00000000
      0.01200000	      0.00000000	      0.00000000	      0.00000000	      0.00000000	      0.00000000	      0.00000000	      0.00000000	      0.00000000	      0.00000000	    -34.66030025	   1679.51460483	     27.88287325	      2.10039015	      0.00000000	      0.99165355	     -0.00000000	      5.22722125	      0.00000000
      0.01300000	      0.00000000	      0.00000000	      0.00000000	      0.00000000	      0.00000000	      0.00000000	      0.00000000	      0.00000000	      0.00000000	    -32.25594105	   1679.30750597	     28.20689586	      2.09896989	      0.00000000	      0.99160050	     -0.00000000	      5.26740127	      0.00000000
      0.01400000	      0.00000000	      0.00000000	      0.00000000	      0.00000000	      0.00000000	      0.00000000	      0.00000000	      0.00000000	      0.00000000	    -29.84569762	   1678.88605971	     28.50702746	      2.09753436	      0.00000000	      0.99154854	     -0.00000000	      5.30941571	      0.00000000
      0.01500000	      0.00000000	      0.00000000	      0.00000000	      0.00000000	      0.00000000	      0.00000000	      0.00000000	      0.00000000	      0.00000000	    -27.43251207	   1678.35743976	     28.79521355	      2.09609121	      0.00000000	      0.99149713	     -0.00000000	      5.35234735	      0.00000000
      0.01600000	      0.00000000	      0.00000000	      0.00000000	      0.00000000	      0.00000000	      0.00000000	      0.00000000	      0.00000000	      0.00000000	    -25.01932651	   1677.82881981	     29.08339965	      2.09464805	      0.00000000	      0.99144572	     -0.00000000	      5.39527899	      0.00000000
      0.01700000	      0.00000000	      0.00000000	      0.00000000	      0.00000000	      0.00000000	      0.00000000	      0.00000000	      0.00000000	      0.00000000	    -22.60010074	   1677.16446077	     29.35672270	      2.09319471	      0.00000000	      0.99139513	     -0.00000000	      5.43921823	      0.00000000
